<svg width="122" height="97" viewBox="0 0 122 97" fill="none" xmlns="http://www.w3.org/2000/svg">
<g style="mix-blend-mode:screen" filter="url(#filter0_d)">
<path d="M38.5234 38.0449C38.5234 38.8887 38.3711 39.75 38.0664 40.6289C37.7734 41.4961 37.3691 42.3574 36.8535 43.2129C36.3379 44.0566 35.7344 44.8711 35.043 45.6562C34.3516 46.4414 33.6191 47.168 32.8457 47.8359C32.0723 48.5039 31.2695 49.1016 30.4375 49.6289C29.6055 50.1445 28.7969 50.5547 28.0117 50.8594C27.8828 50.6719 27.7188 50.4492 27.5195 50.1914C27.332 49.9219 27.127 49.6465 26.9043 49.3652C26.6816 49.0723 26.4531 48.7852 26.2188 48.5039C25.9961 48.2109 25.7793 47.9414 25.5684 47.6953C27.2441 47.0391 28.7441 46.2598 30.0684 45.3574C31.4043 44.4551 32.5352 43.5117 33.4609 42.5273C34.3984 41.5312 35.1133 40.5293 35.6055 39.5215C36.1094 38.502 36.3613 37.5527 36.3613 36.6738C36.3613 36.5566 36.3438 36.4336 36.3086 36.3047C36.2734 36.1758 36.2148 36.0645 36.1328 35.9707C36.0508 35.877 35.9395 35.8125 35.7988 35.7773C35.6699 35.7305 35.5117 35.7305 35.3242 35.7773C34.7734 35.8945 34.1641 36.1113 33.4961 36.4277C32.8398 36.7441 32.1426 37.1426 31.4043 37.623C30.6777 38.0918 29.916 38.6367 29.1191 39.2578C28.334 39.8789 27.5371 40.5469 26.7285 41.2617C26.2949 42.6211 25.7969 44.0625 25.2344 45.5859C24.6719 47.0977 24.0625 48.6094 23.4062 50.1211C22.75 51.6211 22.0586 53.0801 21.332 54.498C20.6172 55.916 19.8848 57.2168 19.1348 58.4004C18.3965 59.5723 17.6523 60.5859 16.9023 61.4414C16.1641 62.3086 15.4492 62.9297 14.7578 63.3047C14.582 63.3984 14.3652 63.4863 14.1074 63.5684C13.8613 63.6504 13.5508 63.709 13.1758 63.7441C13.0352 63.7559 12.8711 63.6973 12.6836 63.5684C12.4844 63.4395 12.2852 63.2754 12.0859 63.0762C11.8867 62.877 11.6875 62.6543 11.4883 62.4082C11.2891 62.1621 11.1074 61.9277 10.9434 61.7051C10.7676 61.4824 10.627 61.2832 10.5215 61.1074C10.4043 60.9316 10.3281 60.8145 10.293 60.7559C10.1992 60.5801 10.1523 60.3691 10.1523 60.123C10.1406 59.8887 10.1641 59.6543 10.2227 59.4199C10.457 58.6348 10.7852 57.7734 11.207 56.8359C11.6289 55.8984 12.127 54.9199 12.7012 53.9004C13.2637 52.8691 13.8906 51.8145 14.582 50.7363C15.2852 49.6465 16.0352 48.5684 16.832 47.502C17.6406 46.4238 18.4844 45.3633 19.3633 44.3203C20.2539 43.2773 21.168 42.2812 22.1055 41.332C22.7031 39.4688 23.1953 37.7051 23.582 36.041C23.9688 34.377 24.1973 32.9297 24.2676 31.6992C24.7363 31.8867 25.1816 32.127 25.6035 32.4199C26.0254 32.7129 26.4062 33.0176 26.7461 33.334C27.0859 33.6504 27.3848 33.9668 27.6426 34.2832C27.9004 34.5996 28.1055 34.8809 28.2578 35.127C28.2344 35.3262 28.2051 35.5312 28.1699 35.7422C28.1348 35.9414 28.0879 36.1582 28.0293 36.3926C29.2129 35.6309 30.373 35.0391 31.5098 34.6172C32.6582 34.1836 33.7715 33.9668 34.8496 33.9668C35.0723 33.9668 35.3125 34.0371 35.5703 34.1777C35.8398 34.3184 36.1094 34.5059 36.3789 34.7402C36.6484 34.9629 36.9062 35.2148 37.1523 35.4961C37.4102 35.7773 37.6387 36.0645 37.8379 36.3574C38.0371 36.6387 38.1953 36.9082 38.3125 37.166C38.4414 37.4121 38.5117 37.6172 38.5234 37.7812V38.0449ZM13.0703 60.1406C13.3398 60.1406 13.7031 59.8418 14.1602 59.2441C14.6172 58.6465 15.127 57.832 15.6895 56.8008C16.2637 55.7695 16.8672 54.5684 17.5 53.1973C18.1328 51.8262 18.7598 50.373 19.3809 48.8379C18.4551 49.9395 17.5938 51.0293 16.7969 52.1074C16.0117 53.1855 15.3262 54.2109 14.7402 55.1836C14.166 56.1445 13.7148 57.0352 13.3867 57.8555C13.0586 58.6641 12.8945 59.3555 12.8945 59.9297C12.8945 60.0703 12.9531 60.1406 13.0703 60.1406ZM35.1484 58.207C35.1484 58.5586 35.2773 58.7344 35.5352 58.7344C35.8047 58.7344 36.1621 58.5234 36.6074 58.1016C37.0527 57.668 37.5156 57.123 37.9961 56.4668C37.9727 56.3379 37.9551 56.2266 37.9434 56.1328C37.9434 56.0273 37.9434 55.9336 37.9434 55.8516C37.9434 55.6172 37.9668 55.3418 38.0137 55.0254C38.0723 54.6973 38.207 54.3281 38.418 53.918C38.5586 53.6016 38.7285 53.291 38.9277 52.9863C39.0918 52.7168 39.291 52.4297 39.5254 52.125C39.7598 51.8086 40.0176 51.5156 40.2988 51.2461L40.4043 51.1406C40.5215 51.2812 40.6738 51.4746 40.8613 51.7207C41.0605 51.9551 41.2539 52.2012 41.4414 52.459C41.6406 52.7051 41.8105 52.9336 41.9512 53.1445C42.1035 53.3555 42.1973 53.502 42.2324 53.584C42.2324 54.0879 42.1387 54.5918 41.9512 55.0957C41.7754 55.5996 41.5352 56.0977 41.2305 56.5898C41.9336 56.543 42.584 56.3672 43.1816 56.0625C43.791 55.7461 44.4238 55.2363 45.0801 54.5332C45.1855 54.6387 45.3203 54.7852 45.4844 54.9727C45.6602 55.1484 45.8008 55.3008 45.9062 55.4297C45.4141 55.9453 44.9277 56.373 44.4473 56.7129C43.9785 57.0527 43.5039 57.3223 43.0234 57.5215C42.5547 57.7207 42.0742 57.8672 41.582 57.9609C41.0898 58.043 40.5859 58.084 40.0703 58.084C39.6719 58.5059 39.2441 58.8926 38.7871 59.2441C38.3301 59.5957 37.8613 59.9004 37.3809 60.1582C36.9121 60.416 36.4434 60.6152 35.9746 60.7559C35.5059 60.8965 35.0605 60.9668 34.6387 60.9668C34.2871 60.9668 33.9238 60.8613 33.5488 60.6504C33.1738 60.4395 32.834 60.1816 32.5293 59.877C32.2246 59.5605 31.9727 59.2266 31.7734 58.875C31.5742 58.5234 31.4746 58.2129 31.4746 57.9434C31.4746 57.0527 31.5977 56.168 31.8438 55.2891C32.0781 54.4102 32.4531 53.5898 32.9688 52.8281C33.4727 52.0547 34.1172 51.375 34.9023 50.7891C35.6992 50.2031 36.6426 49.7578 37.7324 49.4531C37.7676 49.4297 37.8262 49.4121 37.9082 49.4004C38.002 49.3887 38.0781 49.3828 38.1367 49.3828C38.3008 49.3828 38.4707 49.4473 38.6465 49.5762C38.834 49.6934 39.0039 49.8281 39.1562 49.9805C39.3203 50.1328 39.4551 50.2852 39.5605 50.4375C39.666 50.5781 39.7188 50.6719 39.7188 50.7188C39.6953 50.7773 39.6074 50.8535 39.4551 50.9473C39.3027 51.0293 39.0977 51.1758 38.8398 51.3867C38.582 51.5977 38.2773 51.9023 37.9258 52.3008C37.5742 52.6875 37.1875 53.2031 36.7656 53.8477C36.1328 54.7969 35.7051 55.6582 35.4824 56.4316C35.2598 57.1934 35.1484 57.7852 35.1484 58.207ZM52.7969 52.7227C52.6445 53.1797 52.4512 53.7012 52.2168 54.2871C51.9941 54.873 51.7773 55.4473 51.5664 56.0098C51.3555 56.5723 51.1738 57.082 51.0215 57.5391C50.8809 57.9961 50.8105 58.3242 50.8105 58.5234C50.8105 58.5938 50.8457 58.6289 50.916 58.6289C51.0449 58.6289 51.2383 58.5527 51.4961 58.4004C51.7539 58.248 52.0469 58.0488 52.375 57.8027C52.7148 57.5566 53.0664 57.2871 53.4297 56.9941C53.793 56.7012 54.1387 56.4141 54.4668 56.1328C54.8066 55.8398 55.1113 55.5762 55.3809 55.3418C55.6504 55.1074 55.8555 54.9316 55.9961 54.8145C56.1016 54.9199 56.2246 55.0547 56.3652 55.2188C56.5176 55.3828 56.6582 55.5352 56.7871 55.6758C56.5293 55.9336 56.207 56.25 55.8203 56.625C55.4336 56.9883 55.0117 57.3633 54.5547 57.75C54.1094 58.1367 53.6406 58.5234 53.1484 58.9102C52.668 59.2969 52.1934 59.6426 51.7246 59.9473C51.2676 60.252 50.8398 60.498 50.4414 60.6855C50.043 60.873 49.709 60.9668 49.4395 60.9668C49.2637 60.9668 49.041 60.9023 48.7715 60.7734C48.502 60.6562 48.2441 60.5039 47.998 60.3164C47.752 60.1406 47.541 59.9414 47.3652 59.7188C47.1895 59.4961 47.1016 59.2793 47.1016 59.0684C47.2773 58.2832 47.4531 57.5977 47.6289 57.0117C47.8047 56.4258 47.9688 55.9277 48.1211 55.5176C48.2734 55.0957 48.4082 54.7559 48.5254 54.498C48.6426 54.2402 48.7305 54.0469 48.7891 53.918C48.6484 53.8594 48.5137 53.7949 48.3848 53.7246C48.2559 53.6543 48.127 53.584 47.998 53.5137C47.8105 53.7129 47.5996 53.9238 47.3652 54.1465C47.1426 54.3691 46.9141 54.5918 46.6797 54.8145C46.4453 55.0371 46.2109 55.2539 45.9766 55.4648C45.7422 55.6758 45.5312 55.8691 45.3438 56.0449L44.5 55.1836C44.8047 54.8906 45.1738 54.5391 45.6074 54.1289C46.0293 53.707 46.4453 53.2852 46.8555 52.8633C46.5625 52.6875 46.2988 52.5234 46.0645 52.3711C45.8301 52.207 45.6309 52.0605 45.4668 51.9316C45.2676 51.791 45.0918 51.6621 44.9395 51.5449C44.8691 51.5098 44.834 51.4336 44.834 51.3164C44.834 51.1875 44.8867 51.0059 44.9922 50.7715C45.0859 50.5254 45.209 50.2676 45.3613 49.998C45.5137 49.7168 45.6777 49.4355 45.8535 49.1543C46.0293 48.8613 46.1992 48.5977 46.3633 48.3633C46.5273 48.1289 46.668 47.9414 46.7852 47.8008C46.9141 47.6484 46.9961 47.5723 47.0312 47.5723C47.0547 47.5723 47.1309 47.6016 47.2598 47.6602C47.4004 47.7188 47.5469 47.7891 47.6992 47.8711C47.8516 47.9414 47.9922 48.0234 48.1211 48.1172C48.25 48.2109 48.332 48.293 48.3672 48.3633C48.3789 48.4219 48.3906 48.5449 48.4023 48.7324C48.4141 48.9199 48.4258 49.1484 48.4375 49.418C48.8945 49.6523 49.3633 49.9219 49.8438 50.2266C50.3242 50.5195 50.7637 50.8008 51.1621 51.0703C51.6309 51.375 52.0762 51.6855 52.498 52.002C52.6504 52.0957 52.7441 52.2129 52.7793 52.3535C52.8262 52.4941 52.832 52.6172 52.7969 52.7227ZM57.7012 60.9668C57.502 60.9668 57.2383 60.873 56.9102 60.6855C56.5938 60.5098 56.2832 60.2871 55.9785 60.0176C55.6738 59.7598 55.4102 59.4902 55.1875 59.209C54.9648 58.9277 54.8535 58.6875 54.8535 58.4883C54.8535 58.1367 54.9531 57.5801 55.1523 56.8184C55.3398 56.0566 55.5918 55.1895 55.9082 54.2168C56.2246 53.2324 56.582 52.1836 56.9805 51.0703C57.3906 49.957 57.8008 48.8672 58.2109 47.8008H55.7324H55.7148C55.7031 47.8008 55.6973 47.7891 55.6973 47.7656C55.6973 47.6953 55.7266 47.5957 55.7852 47.4668C55.832 47.3262 55.8965 47.1855 55.9785 47.0449C56.0488 46.8926 56.1367 46.7578 56.2422 46.6406C56.3359 46.5117 56.4297 46.4297 56.5234 46.3945L58.8086 46.2891C59.1367 45.4922 59.4473 44.7598 59.7402 44.0918C60.0449 43.4121 60.3145 42.832 60.5488 42.3516C60.6074 42.2227 60.666 42.0879 60.7246 41.9473C60.7949 41.7949 60.8887 41.6484 61.0059 41.5078C61.1348 41.3555 61.2988 41.2031 61.498 41.0508C61.709 40.8867 61.9902 40.7227 62.3418 40.5586C62.5996 40.4297 62.9102 40.2891 63.2734 40.1367C63.6484 39.9844 64.0117 39.8438 64.3633 39.7148C64.7266 39.5859 65.0547 39.4805 65.3477 39.3984C65.6406 39.3047 65.8516 39.2578 65.9805 39.2578C66.0977 39.2578 66.1562 39.2812 66.1562 39.3281V39.3633C66.1562 39.375 66.1445 39.4043 66.1211 39.4512C66.0508 39.5684 65.9219 39.8262 65.7344 40.2246C65.5469 40.6113 65.3125 41.1035 65.0312 41.7012C64.7617 42.2871 64.457 42.9609 64.1172 43.7227C63.7891 44.4727 63.4492 45.2695 63.0977 46.1133L67.3164 45.9551C67.4336 45.9551 67.4688 46.0254 67.4219 46.166C67.375 46.3066 67.2871 46.4707 67.1582 46.6582C67.0293 46.8457 66.877 47.0391 66.7012 47.2383C66.5371 47.4375 66.3965 47.5898 66.2793 47.6953C66.2559 47.7188 66.209 47.7422 66.1387 47.7656C66.0684 47.7891 65.9805 47.8008 65.875 47.8008H62.3945C61.9727 48.8203 61.5684 49.8516 61.1816 50.8945C60.7949 51.9375 60.4492 52.9277 60.1445 53.8652C59.8398 54.8027 59.5938 55.6641 59.4062 56.4492C59.2305 57.2344 59.1426 57.8789 59.1426 58.3828C59.1426 58.4531 59.1777 58.4883 59.248 58.4883C59.377 58.4883 59.5703 58.418 59.8281 58.2773C60.0859 58.125 60.373 57.9316 60.6895 57.6973C61.0176 57.4629 61.3633 57.2051 61.7266 56.9238C62.0898 56.6426 62.4355 56.3672 62.7637 56.0977C63.0918 55.8164 63.3848 55.5645 63.6426 55.3418C63.9121 55.1074 64.1172 54.9316 64.2578 54.8145C64.3633 54.9199 64.4863 55.0547 64.627 55.2188C64.7793 55.3828 64.9199 55.5352 65.0488 55.6758C64.791 55.9336 64.4688 56.25 64.082 56.625C63.6953 56.9883 63.2734 57.3633 62.8164 57.75C62.3711 58.1367 61.9023 58.5234 61.4102 58.9102C60.9297 59.2969 60.4551 59.6426 59.9863 59.9473C59.5293 60.252 59.1016 60.498 58.7031 60.6855C58.3047 60.873 57.9707 60.9668 57.7012 60.9668ZM76.123 55.5C75.2559 56.3789 74.3887 57.1641 73.5215 57.8555C72.666 58.5469 71.793 59.1621 70.9023 59.7012C70.0234 60.2285 69.127 60.6855 68.2129 61.0723C67.2988 61.459 66.3613 61.7871 65.4004 62.0566C64.9316 63.4395 64.4453 64.9102 63.9414 66.4688C63.4375 68.0273 62.9102 69.6973 62.3594 71.4785L57.7539 72.9902C58.3281 71.1973 58.8906 69.4629 59.4414 67.7871C59.9922 66.1113 60.5488 64.4824 61.1113 62.9004C60.7363 62.959 60.3613 63.0059 59.9863 63.041C59.5996 63.0762 59.207 63.1055 58.8086 63.1289L58.5449 61.3359C59.1426 61.2773 59.7109 61.2129 60.25 61.1426C60.7773 61.084 61.2871 61.0254 61.7793 60.9668C63.1504 57.1113 64.5039 53.625 65.8398 50.5078C67.1875 47.3789 68.5469 44.6719 69.918 42.3867C71.2891 40.1016 72.6895 38.2617 74.1191 36.8672C75.5488 35.4727 77.043 34.582 78.6016 34.1953C78.8125 34.2422 79.0352 34.3301 79.2695 34.459C79.5039 34.5762 79.7324 34.7168 79.9551 34.8809C80.1777 35.0449 80.3887 35.2207 80.5879 35.4082C80.7871 35.584 80.9512 35.7539 81.0801 35.918C81.1387 35.9766 81.1797 36.041 81.2031 36.1113C81.2266 36.1699 81.2383 36.2754 81.2383 36.4277C81.2383 37.1543 81.0801 37.957 80.7637 38.8359C80.459 39.7031 80.0254 40.6172 79.4629 41.5781C78.9121 42.5273 78.25 43.5059 77.4766 44.5137C76.7148 45.5215 75.8711 46.5234 74.9453 47.5195C74.0195 48.5039 73.0352 49.4707 71.9922 50.4199C70.9492 51.3574 69.877 52.2422 68.7754 53.0742C68.377 54.0469 67.9492 55.1191 67.4922 56.291C67.0469 57.4629 66.5723 58.752 66.0684 60.1582C66.9004 59.9355 67.6855 59.6719 68.4238 59.3672C69.1738 59.0508 69.9121 58.6758 70.6387 58.2422C71.3652 57.7969 72.1035 57.2812 72.8535 56.6953C73.6152 56.0977 74.4297 55.4004 75.2969 54.6035L76.123 55.5ZM72.1504 45.6738C72.0215 45.9082 71.8633 46.207 71.6758 46.5703C71.5117 46.875 71.3184 47.2617 71.0957 47.7305C70.873 48.1992 70.6211 48.7559 70.3398 49.4004C71.1602 48.6387 71.9453 47.8418 72.6953 47.0098C73.457 46.166 74.166 45.3164 74.8223 44.4609C75.4785 43.6055 76.0762 42.7676 76.6152 41.9473C77.1543 41.1152 77.6172 40.3359 78.0039 39.6094C78.3906 38.8828 78.6895 38.2266 78.9004 37.6406C79.1113 37.0547 79.2168 36.5742 79.2168 36.1992C79.2168 36.0352 79.1582 35.9531 79.041 35.9531C78.8184 35.9531 78.5254 36.1289 78.1621 36.4805C77.7988 36.832 77.3359 37.3945 76.7734 38.168C76.2227 38.9414 75.5664 39.9434 74.8047 41.1738C74.043 42.4043 73.1582 43.9043 72.1504 45.6738ZM77.1953 58.207C77.1953 58.5586 77.3242 58.7344 77.582 58.7344C77.8516 58.7344 78.209 58.5234 78.6543 58.1016C79.0996 57.668 79.5625 57.123 80.043 56.4668C80.0195 56.3379 80.002 56.2266 79.9902 56.1328C79.9902 56.0273 79.9902 55.9336 79.9902 55.8516C79.9902 55.6172 80.0137 55.3418 80.0605 55.0254C80.1191 54.6973 80.2539 54.3281 80.4648 53.918C80.6055 53.6016 80.7754 53.291 80.9746 52.9863C81.1387 52.7168 81.3379 52.4297 81.5723 52.125C81.8066 51.8086 82.0645 51.5156 82.3457 51.2461L82.4512 51.1406C82.5684 51.2812 82.7207 51.4746 82.9082 51.7207C83.1074 51.9551 83.3008 52.2012 83.4883 52.459C83.6875 52.7051 83.8574 52.9336 83.998 53.1445C84.1504 53.3555 84.2441 53.502 84.2793 53.584C84.2793 54.0879 84.1855 54.5918 83.998 55.0957C83.8223 55.5996 83.582 56.0977 83.2773 56.5898C83.9805 56.543 84.6309 56.3672 85.2285 56.0625C85.8379 55.7461 86.4707 55.2363 87.127 54.5332C87.2324 54.6387 87.3672 54.7852 87.5312 54.9727C87.707 55.1484 87.8477 55.3008 87.9531 55.4297C87.4609 55.9453 86.9746 56.373 86.4941 56.7129C86.0254 57.0527 85.5508 57.3223 85.0703 57.5215C84.6016 57.7207 84.1211 57.8672 83.6289 57.9609C83.1367 58.043 82.6328 58.084 82.1172 58.084C81.7188 58.5059 81.291 58.8926 80.834 59.2441C80.377 59.5957 79.9082 59.9004 79.4277 60.1582C78.959 60.416 78.4902 60.6152 78.0215 60.7559C77.5527 60.8965 77.1074 60.9668 76.6855 60.9668C76.334 60.9668 75.9707 60.8613 75.5957 60.6504C75.2207 60.4395 74.8809 60.1816 74.5762 59.877C74.2715 59.5605 74.0195 59.2266 73.8203 58.875C73.6211 58.5234 73.5215 58.2129 73.5215 57.9434C73.5215 57.0527 73.6445 56.168 73.8906 55.2891C74.125 54.4102 74.5 53.5898 75.0156 52.8281C75.5195 52.0547 76.1641 51.375 76.9492 50.7891C77.7461 50.2031 78.6895 49.7578 79.7793 49.4531C79.8145 49.4297 79.873 49.4121 79.9551 49.4004C80.0488 49.3887 80.125 49.3828 80.1836 49.3828C80.3477 49.3828 80.5176 49.4473 80.6934 49.5762C80.8809 49.6934 81.0508 49.8281 81.2031 49.9805C81.3672 50.1328 81.502 50.2852 81.6074 50.4375C81.7129 50.5781 81.7656 50.6719 81.7656 50.7188C81.7422 50.7773 81.6543 50.8535 81.502 50.9473C81.3496 51.0293 81.1445 51.1758 80.8867 51.3867C80.6289 51.5977 80.3242 51.9023 79.9727 52.3008C79.6211 52.6875 79.2344 53.2031 78.8125 53.8477C78.1797 54.7969 77.752 55.6582 77.5293 56.4316C77.3066 57.1934 77.1953 57.7852 77.1953 58.207ZM86.2305 43.6523C85.5742 44.4609 84.8652 45.2285 84.1035 45.9551C83.3418 46.6816 82.5742 47.3555 81.8008 47.9766C81.7422 47.9414 81.6484 47.877 81.5195 47.7832C81.4023 47.6895 81.2793 47.584 81.1504 47.4668C81.0215 47.3496 80.8984 47.2441 80.7812 47.1504C80.6641 47.0449 80.582 46.9629 80.5352 46.9043C80.8281 46.541 81.1562 46.1133 81.5195 45.6211C81.8828 45.1289 82.2344 44.6426 82.5742 44.1621C82.9141 43.6699 83.2188 43.2246 83.4883 42.8262C83.7578 42.416 83.9512 42.1055 84.0684 41.8945C84.3145 42.0117 84.5488 42.1641 84.7715 42.3516C85.0059 42.5273 85.2168 42.7031 85.4043 42.8789C85.6035 43.0547 85.7734 43.2188 85.9141 43.3711C86.0547 43.5117 86.1602 43.6055 86.2305 43.6523ZM90.5898 58.7695C90.7773 58.7695 91.0293 58.6875 91.3457 58.5234C91.6738 58.3594 92.0312 58.1543 92.418 57.9082C92.8047 57.6504 93.209 57.3691 93.6309 57.0645C94.0527 56.7598 94.4453 56.4609 94.8086 56.168C95.1836 55.875 95.5176 55.6055 95.8105 55.3594C96.1035 55.1133 96.3203 54.9316 96.4609 54.8145C96.5664 54.9199 96.6895 55.0547 96.8301 55.2188C96.9824 55.3828 97.123 55.5352 97.252 55.6758C96.9941 55.9336 96.6719 56.25 96.2852 56.625C95.8984 56.9883 95.4766 57.3633 95.0195 57.75C94.5742 58.1367 94.1055 58.5234 93.6133 58.9102C93.1328 59.2969 92.6582 59.6426 92.1895 59.9473C91.7324 60.252 91.3047 60.498 90.9062 60.6855C90.5078 60.873 90.1738 60.9668 89.9043 60.9668C89.541 60.9668 89.1543 60.8379 88.7441 60.5801C88.3457 60.3223 87.9707 60.0234 87.6191 59.6836C87.2676 59.332 86.9688 58.9805 86.7227 58.6289C86.4766 58.2773 86.3359 58.0137 86.3008 57.8379C86.2773 57.7676 86.2656 57.6855 86.2656 57.5918C86.2656 57.4863 86.2656 57.375 86.2656 57.2578C86.2656 56.6719 86.3418 55.9336 86.4941 55.043C86.6348 54.1406 86.8281 53.1914 87.0742 52.1953C87.3203 51.1875 87.6016 50.1914 87.918 49.207C88.2461 48.2109 88.5859 47.332 88.9375 46.5703C89.6523 45.0117 90.3848 43.6289 91.1348 42.4219C91.8965 41.2148 92.6406 40.166 93.3672 39.2754C94.0938 38.373 94.791 37.6172 95.459 37.0078C96.127 36.3984 96.7246 35.9062 97.252 35.5312C97.791 35.1562 98.2422 34.8867 98.6055 34.7227C98.9805 34.5586 99.2383 34.4766 99.3789 34.4766C99.6016 34.5586 99.8242 34.6816 100.047 34.8457C100.281 34.998 100.498 35.1621 100.697 35.3379C100.896 35.5137 101.072 35.6895 101.225 35.8652C101.377 36.0293 101.488 36.1523 101.559 36.2344C101.652 36.3281 101.711 36.4219 101.734 36.5156C101.77 36.5977 101.787 36.709 101.787 36.8496C101.787 37.1309 101.717 37.5176 101.576 38.0098C101.436 38.502 101.172 39.1289 100.785 39.8906C100.398 40.6406 99.8594 41.543 99.168 42.5977C98.4883 43.6523 97.5977 44.8828 96.4961 46.2891C95.9805 46.9453 95.4355 47.6133 94.8613 48.293C94.3691 48.8789 93.8008 49.5176 93.1562 50.209C92.5117 50.9004 91.8496 51.5625 91.1699 52.1953C90.8301 53.4844 90.5898 54.6211 90.4492 55.6055C90.3203 56.5898 90.2559 57.3574 90.2559 57.9082C90.2559 58.2715 90.2852 58.5059 90.3438 58.6113C90.4023 58.7168 90.4844 58.7695 90.5898 58.7695ZM93.4023 45.8848C93.2031 46.3301 93.0156 46.7637 92.8398 47.1855C92.6758 47.6074 92.5176 48.0234 92.3652 48.4336C92.7285 48.0234 93.0566 47.6309 93.3496 47.2559C93.6543 46.8809 93.9121 46.5586 94.123 46.2891C94.3691 45.9727 94.5918 45.6738 94.791 45.3926C95.6113 44.2441 96.3203 43.1895 96.918 42.2285C97.5156 41.2676 98.0078 40.4238 98.3945 39.6973C98.7812 38.959 99.0625 38.3496 99.2383 37.8691C99.4258 37.377 99.5195 37.0254 99.5195 36.8145C99.5195 36.7559 99.5137 36.7148 99.502 36.6914C99.502 36.6562 99.4727 36.6387 99.4141 36.6387C99.3086 36.6387 99.0684 36.8145 98.6934 37.166C98.3184 37.5059 97.8555 38.0508 97.3047 38.8008C96.7656 39.5508 96.1562 40.5117 95.4766 41.6836C94.8086 42.8438 94.1172 44.2441 93.4023 45.8848ZM97.5859 60.9668C97.4102 60.9668 97.1875 60.9023 96.918 60.7734C96.6484 60.6562 96.3906 60.5039 96.1445 60.3164C95.8984 60.1406 95.6875 59.9414 95.5117 59.7188C95.3359 59.4961 95.248 59.2793 95.248 59.0684C95.3652 58.5527 95.5234 57.9609 95.7227 57.293C95.9219 56.625 96.1387 55.9453 96.373 55.2539C96.5957 54.5625 96.8359 53.8887 97.0938 53.2324C97.3398 52.5645 97.5625 51.9727 97.7617 51.457C97.9727 50.9414 98.1543 50.5254 98.3066 50.209C98.459 49.8926 98.5586 49.7344 98.6055 49.7344C98.6758 49.7344 98.8516 49.8105 99.1328 49.9629C99.4141 50.1152 99.707 50.3027 100.012 50.5254C100.328 50.7363 100.609 50.9648 100.855 51.2109C101.102 51.4453 101.225 51.6504 101.225 51.8262C101.225 51.8613 101.219 51.9082 101.207 51.9668C101.195 52.0137 101.178 52.0781 101.154 52.1602C101.061 52.4531 100.938 52.7988 100.785 53.1973C100.645 53.5957 100.492 54.0117 100.328 54.4453C100.164 54.8672 100 55.2949 99.8359 55.7285C99.6719 56.1504 99.5254 56.5488 99.3965 56.9238C99.2676 57.2988 99.1621 57.627 99.0801 57.9082C98.998 58.1895 98.957 58.3945 98.957 58.5234C98.957 58.5938 98.9922 58.6289 99.0625 58.6289C99.1914 58.6289 99.3848 58.5527 99.6426 58.4004C99.9004 58.248 100.193 58.0488 100.521 57.8027C100.861 57.5566 101.213 57.2871 101.576 56.9941C101.939 56.7012 102.285 56.4141 102.613 56.1328C102.953 55.8398 103.258 55.5762 103.527 55.3418C103.797 55.1074 104.002 54.9316 104.143 54.8145C104.248 54.9199 104.371 55.0547 104.512 55.2188C104.664 55.3828 104.805 55.5352 104.934 55.6758C104.676 55.9336 104.354 56.25 103.967 56.625C103.58 56.9883 103.158 57.3633 102.701 57.75C102.256 58.1367 101.787 58.5234 101.295 58.9102C100.814 59.2969 100.346 59.6426 99.8887 59.9473C99.4316 60.252 99.0039 60.498 98.6055 60.6855C98.207 60.873 97.8672 60.9668 97.5859 60.9668ZM104.547 44.373C104.535 44.4199 104.488 44.5371 104.406 44.7246C104.336 44.9004 104.248 45.1113 104.143 45.3574C104.037 45.5918 103.914 45.8438 103.773 46.1133C103.645 46.3711 103.516 46.6113 103.387 46.834C103.258 47.0566 103.135 47.2441 103.018 47.3965C102.9 47.5371 102.807 47.6074 102.736 47.6074C102.525 47.5957 102.268 47.5312 101.963 47.4141C101.67 47.2969 101.383 47.168 101.102 47.0273C100.832 46.875 100.598 46.7285 100.398 46.5879C100.211 46.4473 100.117 46.3477 100.117 46.2891C100.117 46.043 100.188 45.7266 100.328 45.3398C100.469 44.9414 100.633 44.5605 100.82 44.1973C101.008 43.8223 101.195 43.5 101.383 43.2305C101.582 42.9609 101.734 42.8262 101.84 42.8262C102.051 42.8262 102.309 42.8965 102.613 43.0371C102.918 43.166 103.211 43.3184 103.492 43.4941C103.785 43.6699 104.031 43.8457 104.23 44.0215C104.441 44.1855 104.547 44.3027 104.547 44.373ZM106.094 58.207C106.094 58.5586 106.223 58.7344 106.48 58.7344C106.75 58.7344 107.107 58.5234 107.553 58.1016C107.998 57.668 108.461 57.123 108.941 56.4668C108.918 56.3379 108.9 56.2266 108.889 56.1328C108.889 56.0273 108.889 55.9336 108.889 55.8516C108.889 55.6172 108.912 55.3418 108.959 55.0254C109.018 54.6973 109.152 54.3281 109.363 53.918C109.504 53.6016 109.674 53.291 109.873 52.9863C110.037 52.7168 110.236 52.4297 110.471 52.125C110.705 51.8086 110.963 51.5156 111.244 51.2461L111.35 51.1406C111.467 51.2812 111.619 51.4746 111.807 51.7207C112.006 51.9551 112.199 52.2012 112.387 52.459C112.586 52.7051 112.756 52.9336 112.896 53.1445C113.049 53.3555 113.143 53.502 113.178 53.584C113.178 54.0879 113.084 54.5918 112.896 55.0957C112.721 55.5996 112.48 56.0977 112.176 56.5898C112.879 56.543 113.529 56.3672 114.127 56.0625C114.736 55.7461 115.369 55.2363 116.025 54.5332C116.131 54.6387 116.266 54.7852 116.43 54.9727C116.605 55.1484 116.746 55.3008 116.852 55.4297C116.359 55.9453 115.873 56.373 115.393 56.7129C114.924 57.0527 114.449 57.3223 113.969 57.5215C113.5 57.7207 113.02 57.8672 112.527 57.9609C112.035 58.043 111.531 58.084 111.016 58.084C110.617 58.5059 110.189 58.8926 109.732 59.2441C109.275 59.5957 108.807 59.9004 108.326 60.1582C107.857 60.416 107.389 60.6152 106.92 60.7559C106.451 60.8965 106.006 60.9668 105.584 60.9668C105.232 60.9668 104.869 60.8613 104.494 60.6504C104.119 60.4395 103.779 60.1816 103.475 59.877C103.17 59.5605 102.918 59.2266 102.719 58.875C102.52 58.5234 102.42 58.2129 102.42 57.9434C102.42 57.0527 102.543 56.168 102.789 55.2891C103.023 54.4102 103.398 53.5898 103.914 52.8281C104.418 52.0547 105.062 51.375 105.848 50.7891C106.645 50.2031 107.588 49.7578 108.678 49.4531C108.713 49.4297 108.771 49.4121 108.854 49.4004C108.947 49.3887 109.023 49.3828 109.082 49.3828C109.246 49.3828 109.416 49.4473 109.592 49.5762C109.779 49.6934 109.949 49.8281 110.102 49.9805C110.266 50.1328 110.4 50.2852 110.506 50.4375C110.611 50.5781 110.664 50.6719 110.664 50.7188C110.641 50.7773 110.553 50.8535 110.4 50.9473C110.248 51.0293 110.043 51.1758 109.785 51.3867C109.527 51.5977 109.223 51.9023 108.871 52.3008C108.52 52.6875 108.133 53.2031 107.711 53.8477C107.078 54.7969 106.65 55.6582 106.428 56.4316C106.205 57.1934 106.094 57.7852 106.094 58.207Z" fill="white"/>
</g>
<circle cx="40.8866" cy="40.8866" r="40" transform="rotate(-1.2844 40.8866 40.8866)" fill="#2C4DFA" fill-opacity="0.23"/>
<circle cx="82" cy="57" r="40" fill="#2C4DFA" fill-opacity="0.23"/>
<defs>
<filter id="filter0_d" x="6.14941" y="31.6992" width="114.702" height="49.291" filterUnits="userSpaceOnUse" color-interpolation-filters="sRGB">
<feFlood flood-opacity="0" result="BackgroundImageFix"/>
<feColorMatrix in="SourceAlpha" type="matrix" values="0 0 0 0 0 0 0 0 0 0 0 0 0 0 0 0 0 0 127 0"/>
<feOffset dy="4"/>
<feGaussianBlur stdDeviation="2"/>
<feColorMatrix type="matrix" values="0 0 0 0 0 0 0 0 0 0 0 0 0 0 0 0 0 0 0.25 0"/>
<feBlend mode="normal" in2="BackgroundImageFix" result="effect1_dropShadow"/>
<feBlend mode="normal" in="SourceGraphic" in2="effect1_dropShadow" result="shape"/>
</filter>
</defs>
</svg>
