<svg width="656" height="656" viewBox="0 0 656 656" fill="none" xmlns="http://www.w3.org/2000/svg">
  <path d="M547 0C547 0 534.5 74 502.5 116.5C470.5 159 439 172.5 348.5 218.5C258 264.5 236 262.5 134 332.5C32 402.5 -26 530 -26 530" stroke="#5765ca" />
  <path d="M596 0C596 0 582.431 84.1925 547.695 132.546C512.958 180.9 478.764 196.259 380.525 248.595C282.286 300.931 258.405 298.656 147.682 378.297C36.9599 457.939 -26 603 -26 603" stroke="#1a8fff" />
  <path d="M655 0C655 0 640.711 91.4528 604.132 143.976C567.552 196.5 531.545 213.184 428.093 270.033C324.642 326.882 299.494 324.41 182.897 410.92C66.3002 497.429 0 655 0 655" stroke="#1a8fff" />
</svg>